<svg height="48" viewBox="0 0 48 48" width="48" xmlns="http://www.w3.org/2000/svg"><g fill="none" fill-rule="evenodd" transform="translate(1 3)"><g fill="#000"><path d="m4.5 4.5h25.5v18h-25.5z" fill-opacity=".05"/><path d="m13.5 6c.4142136 0 .75-.33578644.75-.75s-.3357864-.75-.75-.75-.75.33578644-.75.75.3357864.75.75.75z"/><path d="m13.5 16.5c.4142136 0 .75-.3357864.75-.75s-.3357864-.75-.75-.75-.75.3357864-.75.75.3357864.75.75.75z"/><path d="m18.75 11.25c.4142136 0 .75-.3357864.75-.75s-.3357864-.75-.75-.75-.75.3357864-.75.75.3357864.75.75.75z" transform="matrix(0 1 -1 0 29.25 -8.25)"/><path d="m8.25 11.25c.41421356 0 .75-.3357864.75-.75s-.33578644-.75-.75-.75-.75.3357864-.75.75.33578644.75.75.75z" transform="matrix(0 1 -1 0 18.75 2.25)"/><path d="m17.2123106 14.9623106c.4142136 0 .75-.3357864.75-.75s-.3357864-.75-.75-.75-.75.3357864-.75.75.3357864.75.75.75z" transform="matrix(-.70710678 .70710678 -.70710678 -.70710678 39.432874 12.090991)"/><path d="m9.7876894 7.5376894c.4142136 0 .75-.33578644.75-.75s-.3357864-.75-.75-.75c-.41421356 0-.75.33578644-.75.75s.33578644.75.75.75z" transform="matrix(-.70710678 .70710678 -.70710678 -.70710678 21.508251 4.666369)"/><path d="m9.7876894 14.9623106c.4142136 0 .75-.3357864.75-.75s-.3357864-.75-.75-.75c-.41421356 0-.75.3357864-.75.75s.33578644.75.75.75z" transform="matrix(-.70710678 -.70710678 .70710678 -.70710678 6.659009 31.182874)"/><path d="m17.2123106 7.5376894c.4142136 0 .75-.33578644.75-.75s-.3357864-.75-.75-.75-.75.33578644-.75.75.3357864.75.75.75z" transform="matrix(-.70710678 -.70710678 .70710678 -.70710678 24.583632 23.758252)"/></g><path d="m.75 1.5h25.3906929v18h-25.3906929z" stroke="#000" stroke-linecap="round" stroke-linejoin="round"/><path d="m.75 0v26.027153" fill="#d8d8d8" stroke="#000" stroke-linecap="round" stroke-linejoin="round"/></g></svg>